<mxfile host="65bd71144e" modified="2021-01-05T17:32:25.682Z" agent="5.0 (Macintosh; Intel Mac OS X 11_0_0) AppleWebKit/537.36 (KHTML, like Gecko) Code/1.52.1 Chrome/83.0.4103.122 Electron/9.3.5 Safari/537.36" etag="ojMZALjn2PcurbLvmyZs" version="13.10.0" type="embed">
    <diagram id="f9QB8XBYw-Qf3E7ueuMX" name="Page-1">
        <mxGraphModel dx="2128" dy="971" grid="1" gridSize="10" guides="1" tooltips="1" connect="1" arrows="1" fold="1" page="1" pageScale="1" pageWidth="850" pageHeight="1100" math="0" shadow="0">
            <root>
                <mxCell id="0"/>
                <mxCell id="1" parent="0"/>
                <mxCell id="20" value="" style="group" parent="1" vertex="1" connectable="0">
                    <mxGeometry x="30" y="60" width="660" height="100" as="geometry"/>
                </mxCell>
                <mxCell id="23" value="" style="rounded=1;whiteSpace=wrap;html=1;strokeColor=#B20000;fontColor=#ffffff;dashed=1;fillColor=none;strokeWidth=3;" parent="20" vertex="1">
                    <mxGeometry x="-14.558823529411764" y="-10" width="674.5588235294117" height="110" as="geometry"/>
                </mxCell>
                <mxCell id="2" value="" style="aspect=fixed;perimeter=ellipsePerimeter;html=1;align=center;shadow=0;dashed=0;fontColor=#4277BB;labelBackgroundColor=#ffffff;fontSize=12;spacingTop=3;image;image=img/lib/ibm/devops/devops.svg;" parent="20" vertex="1">
                    <mxGeometry x="14.558823529411764" width="58.23529411764706" height="58.23529411764706" as="geometry"/>
                </mxCell>
                <mxCell id="4" value="DevOps Tools" style="text;html=1;align=center;verticalAlign=middle;resizable=0;points=[];autosize=1;" parent="20" vertex="1">
                    <mxGeometry y="70" width="90" height="20" as="geometry"/>
                </mxCell>
                <mxCell id="18" value="" style="group" parent="1" vertex="1" connectable="0">
                    <mxGeometry x="360" y="60" width="84" height="90" as="geometry"/>
                </mxCell>
                <mxCell id="10" value="Developers" style="text;html=1;align=center;verticalAlign=middle;resizable=0;points=[];autosize=1;" parent="18" vertex="1">
                    <mxGeometry x="4" y="70" width="80" height="20" as="geometry"/>
                </mxCell>
                <mxCell id="12" value="" style="group" parent="18" vertex="1" connectable="0">
                    <mxGeometry width="84" height="60" as="geometry"/>
                </mxCell>
                <mxCell id="8" value="" style="shape=mxgraph.bpmn.user_task;html=1;outlineConnect=0;container=1;" parent="12" vertex="1">
                    <mxGeometry x="34" y="4" width="50" height="40" as="geometry"/>
                </mxCell>
                <mxCell id="11" value="" style="group" parent="12" vertex="1" connectable="0">
                    <mxGeometry width="70" height="60" as="geometry"/>
                </mxCell>
                <mxCell id="7" value="" style="shape=mxgraph.bpmn.user_task;html=1;outlineConnect=0;" parent="11" vertex="1">
                    <mxGeometry width="50" height="40" as="geometry"/>
                </mxCell>
                <mxCell id="9" value="" style="shape=mxgraph.bpmn.user_task;html=1;outlineConnect=0;" parent="11" vertex="1">
                    <mxGeometry x="20" y="20" width="50" height="40" as="geometry"/>
                </mxCell>
                <mxCell id="19" value="" style="group" parent="1" vertex="1" connectable="0">
                    <mxGeometry x="170" y="60" width="120" height="90" as="geometry"/>
                </mxCell>
                <mxCell id="3" value="" style="aspect=fixed;perimeter=ellipsePerimeter;html=1;align=center;shadow=0;dashed=0;fontColor=#4277BB;labelBackgroundColor=#ffffff;fontSize=12;spacingTop=3;image;image=img/lib/ibm/applications/enterprise_applications.svg;" parent="19" vertex="1">
                    <mxGeometry x="30" width="60" height="60" as="geometry"/>
                </mxCell>
                <mxCell id="5" value="Application Owners" style="text;html=1;align=center;verticalAlign=middle;resizable=0;points=[];autosize=1;" parent="19" vertex="1">
                    <mxGeometry y="70" width="120" height="20" as="geometry"/>
                </mxCell>
                <mxCell id="22" value="" style="group" parent="1" vertex="1" connectable="0">
                    <mxGeometry x="570" y="60" width="84" height="90" as="geometry"/>
                </mxCell>
                <mxCell id="13" value="" style="group" parent="22" vertex="1" connectable="0">
                    <mxGeometry width="84" height="60" as="geometry"/>
                </mxCell>
                <mxCell id="14" value="" style="shape=mxgraph.bpmn.user_task;html=1;outlineConnect=0;container=1;" parent="13" vertex="1">
                    <mxGeometry x="34" y="4" width="50" height="40" as="geometry"/>
                </mxCell>
                <mxCell id="15" value="" style="group" parent="13" vertex="1" connectable="0">
                    <mxGeometry width="70" height="60" as="geometry"/>
                </mxCell>
                <mxCell id="16" value="" style="shape=mxgraph.bpmn.user_task;html=1;outlineConnect=0;" parent="15" vertex="1">
                    <mxGeometry width="50" height="40" as="geometry"/>
                </mxCell>
                <mxCell id="17" value="" style="shape=mxgraph.bpmn.user_task;html=1;outlineConnect=0;" parent="15" vertex="1">
                    <mxGeometry x="20" y="20" width="50" height="40" as="geometry"/>
                </mxCell>
                <mxCell id="21" value="Operations" style="text;html=1;align=center;verticalAlign=middle;resizable=0;points=[];autosize=1;" parent="22" vertex="1">
                    <mxGeometry x="5" y="70" width="70" height="20" as="geometry"/>
                </mxCell>
                <mxCell id="28" value="&lt;b&gt;Business Support&lt;br&gt;/&amp;nbsp; Operation&lt;/b&gt;" style="rounded=0;whiteSpace=wrap;html=1;dashed=1;strokeWidth=3;strokeColor=#B20000;fontColor=#ffffff;fillColor=none;horizontal=1;verticalAlign=top;" parent="1" vertex="1">
                    <mxGeometry x="700" y="50" width="130" height="400" as="geometry"/>
                </mxCell>
                <mxCell id="38" value="" style="group" parent="1" vertex="1" connectable="0">
                    <mxGeometry x="720" y="120" width="94" height="86.48648648648648" as="geometry"/>
                </mxCell>
                <mxCell id="48" value="" style="group" vertex="1" connectable="0" parent="38">
                    <mxGeometry y="-8" width="94" height="86.48648648648648" as="geometry"/>
                </mxCell>
                <mxCell id="49" value="" style="group" vertex="1" connectable="0" parent="48">
                    <mxGeometry width="94" height="86.48648648648648" as="geometry"/>
                </mxCell>
                <mxCell id="29" value="Security" style="rounded=0;whiteSpace=wrap;html=1;dashed=1;strokeWidth=3;fillColor=none;" parent="49" vertex="1">
                    <mxGeometry width="94" height="32.43243243243243" as="geometry"/>
                </mxCell>
                <mxCell id="33" value="Event" style="rounded=0;whiteSpace=wrap;html=1;dashed=1;strokeWidth=3;fillColor=none;" parent="49" vertex="1">
                    <mxGeometry y="54.05405405405405" width="94" height="32.43243243243243" as="geometry"/>
                </mxCell>
                <mxCell id="50" value="" style="group" vertex="1" connectable="0" parent="1">
                    <mxGeometry x="717.5" y="217.14594594594593" width="97" height="183.28405405405408" as="geometry"/>
                </mxCell>
                <mxCell id="30" value="Escalation" style="rounded=0;whiteSpace=wrap;html=1;dashed=1;strokeWidth=3;fillColor=none;container=0;" parent="50" vertex="1">
                    <mxGeometry x="1.5" width="95" height="34.464864864864865" as="geometry"/>
                </mxCell>
                <mxCell id="31" value="Capacity" style="rounded=0;whiteSpace=wrap;html=1;dashed=1;strokeWidth=3;fillColor=none;container=0;" parent="50" vertex="1">
                    <mxGeometry x="2.5" y="52.36756756756756" width="94" height="32.43243243243243" as="geometry"/>
                </mxCell>
                <mxCell id="32" value="Configuration" style="rounded=0;whiteSpace=wrap;html=1;dashed=1;strokeWidth=3;fillColor=none;container=0;" parent="50" vertex="1">
                    <mxGeometry x="2" y="102.42162162162163" width="95" height="32.43243243243243" as="geometry"/>
                </mxCell>
                <mxCell id="45" value="Problems" style="rounded=0;whiteSpace=wrap;html=1;dashed=1;strokeWidth=3;fillColor=none;container=0;" vertex="1" parent="50">
                    <mxGeometry y="150.85162162162163" width="95" height="32.43243243243243" as="geometry"/>
                </mxCell>
                <mxCell id="51" value="" style="group" vertex="1" connectable="0" parent="1">
                    <mxGeometry y="265" width="394" height="315" as="geometry"/>
                </mxCell>
                <mxCell id="24" value="Cloud Azure&lt;br&gt;&lt;br&gt;(VPC)" style="ellipse;shape=cloud;whiteSpace=wrap;html=1;dashed=1;strokeWidth=3;fillColor=none;" parent="51" vertex="1">
                    <mxGeometry width="170" height="132.3913043478261" as="geometry"/>
                </mxCell>
                <mxCell id="25" value="Cloud AWS&lt;br&gt;&lt;br&gt;(VPC)" style="ellipse;shape=cloud;whiteSpace=wrap;html=1;dashed=1;strokeWidth=3;fillColor=none;" parent="51" vertex="1">
                    <mxGeometry x="170" y="68.47826086956522" width="170" height="132.3913043478261" as="geometry"/>
                </mxCell>
                <mxCell id="34" value="Cloud GCP&lt;br&gt;&lt;br&gt;(VPC)" style="ellipse;shape=cloud;whiteSpace=wrap;html=1;dashed=1;strokeWidth=3;fillColor=none;" parent="51" vertex="1">
                    <mxGeometry y="132.3913043478261" width="170" height="146.08695652173913" as="geometry"/>
                </mxCell>
                <mxCell id="88" value="" style="aspect=fixed;html=1;points=[];align=center;image;fontSize=12;image=img/lib/azure2/networking/Virtual_Networks.svg;dashed=1;dashPattern=1 1;labelBackgroundColor=none;strokeColor=#f0f0f0;strokeWidth=2;" vertex="1" parent="51">
                    <mxGeometry x="353" y="151.78" width="38.17" height="22.79" as="geometry"/>
                </mxCell>
                <mxCell id="89" value="" style="whiteSpace=wrap;html=1;dashed=1;labelBackgroundColor=none;strokeWidth=2;fillColor=none;strokeColor=#FF66FF;" vertex="1" parent="51">
                    <mxGeometry x="5" y="4.565217391304348" width="340" height="310.4347826086956" as="geometry"/>
                </mxCell>
                <mxCell id="90" style="edgeStyle=orthogonalEdgeStyle;rounded=0;orthogonalLoop=1;jettySize=auto;html=1;exitX=0.5;exitY=1;exitDx=0;exitDy=0;fontColor=#FF8000;" edge="1" parent="51" source="89" target="89">
                    <mxGeometry relative="1" as="geometry"/>
                </mxCell>
                <mxCell id="93" style="edgeStyle=orthogonalEdgeStyle;rounded=0;orthogonalLoop=1;jettySize=auto;html=1;exitX=0.5;exitY=1;exitDx=0;exitDy=0;fontColor=#FF8000;" edge="1" parent="51" source="89" target="89">
                    <mxGeometry relative="1" as="geometry"/>
                </mxCell>
                <mxCell id="52" value="" style="group;fillColor=none;labelPosition=center;verticalLabelPosition=bottom;align=center;verticalAlign=top;" vertex="1" connectable="0" parent="1">
                    <mxGeometry x="400" y="290" width="290" height="260" as="geometry"/>
                </mxCell>
                <mxCell id="35" value="&lt;br&gt;&lt;br&gt;&lt;br&gt;" style="rounded=1;whiteSpace=wrap;html=1;dashed=1;strokeWidth=3;strokeColor=#B20000;fontColor=#ffffff;fillColor=none;labelPosition=center;verticalLabelPosition=bottom;align=center;verticalAlign=bottom;" parent="52" vertex="1">
                    <mxGeometry width="290" height="260" as="geometry"/>
                </mxCell>
                <mxCell id="26" value="DataCenters 1" style="rounded=0;whiteSpace=wrap;html=1;dashed=1;strokeWidth=3;fillColor=none;" parent="52" vertex="1">
                    <mxGeometry x="11" y="20" width="120" height="200" as="geometry"/>
                </mxCell>
                <mxCell id="27" value="Dataceters 2" style="rounded=0;whiteSpace=wrap;html=1;dashed=1;strokeWidth=3;fillColor=none;" parent="52" vertex="1">
                    <mxGeometry x="161" y="20" width="120" height="200" as="geometry"/>
                </mxCell>
                <mxCell id="77" value="" style="group" vertex="1" connectable="0" parent="52">
                    <mxGeometry x="17" y="28" width="108" height="52" as="geometry"/>
                </mxCell>
                <mxCell id="75" value="" style="aspect=fixed;html=1;points=[];align=center;image;fontSize=12;image=img/lib/azure2/compute/Availability_Sets.svg;dashed=1;dashPattern=1 1;labelBackgroundColor=none;strokeColor=#B3FF66;strokeWidth=2;" vertex="1" parent="77">
                    <mxGeometry width="52" height="52" as="geometry"/>
                </mxCell>
                <mxCell id="76" value="" style="aspect=fixed;html=1;points=[];align=center;image;fontSize=12;image=img/lib/azure2/compute/Availability_Sets.svg;dashed=1;dashPattern=1 1;labelBackgroundColor=none;strokeColor=#B3FF66;strokeWidth=2;" vertex="1" parent="77">
                    <mxGeometry x="56" width="52" height="52" as="geometry"/>
                </mxCell>
                <mxCell id="78" value="" style="group" vertex="1" connectable="0" parent="52">
                    <mxGeometry x="167" y="28" width="108" height="52" as="geometry"/>
                </mxCell>
                <mxCell id="79" value="" style="aspect=fixed;html=1;points=[];align=center;image;fontSize=12;image=img/lib/azure2/compute/Availability_Sets.svg;dashed=1;dashPattern=1 1;labelBackgroundColor=none;strokeColor=#B3FF66;strokeWidth=2;" vertex="1" parent="78">
                    <mxGeometry width="52" height="52" as="geometry"/>
                </mxCell>
                <mxCell id="80" value="" style="aspect=fixed;html=1;points=[];align=center;image;fontSize=12;image=img/lib/azure2/compute/Availability_Sets.svg;dashed=1;dashPattern=1 1;labelBackgroundColor=none;strokeColor=#B3FF66;strokeWidth=2;" vertex="1" parent="78">
                    <mxGeometry x="56" width="52" height="52" as="geometry"/>
                </mxCell>
                <mxCell id="81" value="" style="group" vertex="1" connectable="0" parent="52">
                    <mxGeometry x="17" y="134" width="108" height="52" as="geometry"/>
                </mxCell>
                <mxCell id="94" value="" style="group" vertex="1" connectable="0" parent="81">
                    <mxGeometry y="8" width="108" height="52" as="geometry"/>
                </mxCell>
                <mxCell id="82" value="" style="aspect=fixed;html=1;points=[];align=center;image;fontSize=12;image=img/lib/azure2/compute/Availability_Sets.svg;dashed=1;dashPattern=1 1;labelBackgroundColor=none;strokeColor=#B3FF66;strokeWidth=2;" vertex="1" parent="94">
                    <mxGeometry width="52" height="52" as="geometry"/>
                </mxCell>
                <mxCell id="83" value="" style="aspect=fixed;html=1;points=[];align=center;image;fontSize=12;image=img/lib/azure2/compute/Availability_Sets.svg;dashed=1;dashPattern=1 1;labelBackgroundColor=none;strokeColor=#B3FF66;strokeWidth=2;" vertex="1" parent="94">
                    <mxGeometry x="56" width="52" height="52" as="geometry"/>
                </mxCell>
                <mxCell id="84" value="" style="group" vertex="1" connectable="0" parent="52">
                    <mxGeometry x="167" y="143" width="108" height="52" as="geometry"/>
                </mxCell>
                <mxCell id="85" value="" style="aspect=fixed;html=1;points=[];align=center;image;fontSize=12;image=img/lib/azure2/compute/Availability_Sets.svg;dashed=1;dashPattern=1 1;labelBackgroundColor=none;strokeColor=#B3FF66;strokeWidth=2;" vertex="1" parent="84">
                    <mxGeometry width="52" height="52" as="geometry"/>
                </mxCell>
                <mxCell id="86" value="" style="aspect=fixed;html=1;points=[];align=center;image;fontSize=12;image=img/lib/azure2/compute/Availability_Sets.svg;dashed=1;dashPattern=1 1;labelBackgroundColor=none;strokeColor=#B3FF66;strokeWidth=2;" vertex="1" parent="84">
                    <mxGeometry x="56" width="52" height="52" as="geometry"/>
                </mxCell>
                <mxCell id="36" value="&lt;b&gt;Private Cloud&lt;/b&gt;" style="text;html=1;align=center;verticalAlign=middle;resizable=0;points=[];autosize=1;" parent="52" vertex="1">
                    <mxGeometry x="100" y="236" width="90" height="20" as="geometry"/>
                </mxCell>
                <mxCell id="57" value="" style="rounded=1;whiteSpace=wrap;html=1;labelBackgroundColor=none;fillColor=none;dashed=1;dashPattern=1 1;strokeWidth=2;strokeColor=#B3FF66;" vertex="1" parent="1">
                    <mxGeometry x="40" y="167.15" width="590" height="88.68" as="geometry"/>
                </mxCell>
                <mxCell id="62" value="&lt;font style=&quot;font-size: 16px&quot;&gt;CMP&lt;/font&gt;" style="text;html=1;strokeColor=none;fillColor=none;align=center;verticalAlign=middle;whiteSpace=wrap;rounded=0;dashed=1;dashPattern=1 1;labelBackgroundColor=none;fontColor=#FF8000;" vertex="1" parent="1">
                    <mxGeometry x="570" y="190.06000000000003" width="50" height="43.51" as="geometry"/>
                </mxCell>
                <mxCell id="63" value="CMP = Cloud Managment Platform" style="text;html=1;strokeColor=none;fillColor=none;align=center;verticalAlign=middle;whiteSpace=wrap;rounded=0;dashed=1;dashPattern=1 1;labelBackgroundColor=none;fontColor=#FF8000;" vertex="1" parent="1">
                    <mxGeometry y="660" width="220" height="20" as="geometry"/>
                </mxCell>
                <mxCell id="96" value="" style="group" vertex="1" connectable="0" parent="1">
                    <mxGeometry x="66" y="176.48999999999998" width="500" height="70.66" as="geometry"/>
                </mxCell>
                <mxCell id="59" value="Workflow" style="rounded=0;whiteSpace=wrap;html=1;dashed=1;dashPattern=1 1;labelBackgroundColor=none;strokeWidth=2;" vertex="1" parent="96">
                    <mxGeometry width="90" height="30" as="geometry"/>
                </mxCell>
                <mxCell id="64" value="Provisioning" style="rounded=0;whiteSpace=wrap;html=1;dashed=1;dashPattern=1 1;labelBackgroundColor=none;strokeWidth=2;" vertex="1" parent="96">
                    <mxGeometry x="105" width="90" height="30" as="geometry"/>
                </mxCell>
                <mxCell id="65" value="Orchestration&lt;span style=&quot;color: rgba(0 , 0 , 0 , 0) ; font-family: monospace ; font-size: 0px&quot;&gt;%3CmxGraphModel%3E%3Croot%3E%3CmxCell%20id%3D%220%22%2F%3E%3CmxCell%20id%3D%221%22%20parent%3D%220%22%2F%3E%3CmxCell%20id%3D%222%22%20value%3D%22Monitoring%22%20style%3D%22rounded%3D0%3BwhiteSpace%3Dwrap%3Bhtml%3D1%3Bdashed%3D1%3BdashPattern%3D1%201%3BlabelBackgroundColor%3Dnone%3BstrokeWidth%3D2%3B%22%20vertex%3D%221%22%20parent%3D%221%22%3E%3CmxGeometry%20x%3D%22145%22%20y%3D%22214.99999999999997%22%20width%3D%2290%22%20height%3D%2230%22%20as%3D%22geometry%22%2F%3E%3C%2FmxCell%3E%3C%2Froot%3E%3C%2FmxGraphModel%3E&lt;/span&gt;" style="rounded=0;whiteSpace=wrap;html=1;dashed=1;dashPattern=1 1;labelBackgroundColor=none;strokeWidth=2;" vertex="1" parent="96">
                    <mxGeometry x="205" width="90" height="30" as="geometry"/>
                </mxCell>
                <mxCell id="66" value="Configuration" style="rounded=0;whiteSpace=wrap;html=1;dashed=1;dashPattern=1 1;labelBackgroundColor=none;strokeWidth=2;" vertex="1" parent="96">
                    <mxGeometry y="40.66" width="90" height="30" as="geometry"/>
                </mxCell>
                <mxCell id="67" value="Monitoring" style="rounded=0;whiteSpace=wrap;html=1;dashed=1;dashPattern=1 1;labelBackgroundColor=none;strokeWidth=2;" vertex="1" parent="96">
                    <mxGeometry x="105" y="40.50999999999999" width="90" height="30" as="geometry"/>
                </mxCell>
                <mxCell id="70" value="Lifecycle" style="rounded=0;whiteSpace=wrap;html=1;dashed=1;dashPattern=1 1;labelBackgroundColor=none;strokeWidth=2;" vertex="1" parent="96">
                    <mxGeometry x="205" y="40.50999999999999" width="90" height="30" as="geometry"/>
                </mxCell>
                <mxCell id="71" value="Catalog" style="rounded=0;whiteSpace=wrap;html=1;dashed=1;dashPattern=1 1;labelBackgroundColor=none;strokeWidth=2;" vertex="1" parent="96">
                    <mxGeometry x="310" y="40.66" width="90" height="30" as="geometry"/>
                </mxCell>
                <mxCell id="72" value="Governance" style="rounded=0;whiteSpace=wrap;html=1;dashed=1;dashPattern=1 1;labelBackgroundColor=none;strokeWidth=2;" vertex="1" parent="96">
                    <mxGeometry x="310" width="90" height="30" as="geometry"/>
                </mxCell>
                <mxCell id="73" value="Dashboard" style="rounded=0;whiteSpace=wrap;html=1;dashed=1;dashPattern=1 1;labelBackgroundColor=none;strokeWidth=2;" vertex="1" parent="96">
                    <mxGeometry x="410" width="90" height="30" as="geometry"/>
                </mxCell>
                <mxCell id="74" value="Admin" style="rounded=0;whiteSpace=wrap;html=1;dashed=1;dashPattern=1 1;labelBackgroundColor=none;strokeWidth=2;" vertex="1" parent="96">
                    <mxGeometry x="410" y="40.50999999999999" width="90" height="30" as="geometry"/>
                </mxCell>
            </root>
        </mxGraphModel>
    </diagram>
</mxfile>